<svg viewBox="0 0 53 64" fill="none" xmlns="http://www.w3.org/2000/svg">
<path d="M53 46.9535C50.9172 53.0335 44.6822 63.7991 38.2588 63.9167C33.997 63.9991 32.6272 61.375 27.7564 61.375C22.888 61.375 21.3649 63.8367 17.3367 63.9967C10.5206 64.2607 0 48.4575 0 34.6759C0 22.0168 8.76694 15.7416 16.4249 15.6272C20.5325 15.5528 24.412 18.4136 26.9162 18.4136C29.4314 18.4136 34.1432 14.9735 39.0959 15.4775C41.1684 15.5655 46.99 16.3176 50.7264 21.8167C40.8131 28.3287 42.3577 41.9479 53 46.9535ZM39.1619 0C31.6733 0.303999 25.5623 8.21119 26.4153 14.7496C33.3371 15.2912 39.9784 7.48318 39.1619 0Z" fill="var(--color-text-primary)"/>
</svg>
