<svg viewBox="0 0 147 165" fill="none" xmlns="http://www.w3.org/2000/svg">
   <path fill-rule="evenodd" clip-rule="evenodd"
      d="M0.0472404 150.585C6.94723 146.811 27.659 124.105 34.8656 116.899C41.8246 109.94 65.0015 88.7563 68.2687 82.5286C61.2625 72.845 43.5467 57.1579 34.2641 47.8753C28.06 41.6712 23.0826 36.7882 16.6426 30.8082C10.6862 25.2646 5.99185 19.5205 6.10352e-05 14.4487L0.0472404 150.585Z"
      fill="#547CBF" />
   <path fill-rule="evenodd" clip-rule="evenodd"
      d="M0 14.4488C5.97999 19.5205 10.6861 25.2646 16.6425 30.8082C23.0825 36.8 28.0482 41.6713 34.264 47.8754C43.5466 57.1579 61.2625 72.8333 68.2686 82.5286L69.2004 82.0333L104.184 47.4507C100.032 43.2872 84.7814 35.6677 78.3296 31.8108C69.4953 26.5149 61.0973 21.7734 52.1922 16.619C37.5312 8.13851 8.0087 -14.885 0 14.4488Z"
      fill="#30A953" />
   <path fill-rule="evenodd" clip-rule="evenodd"
      d="M0.0472412 150.585C11.3585 178.126 35.4436 156.966 52.2041 147.565C60.8497 142.718 69.4835 137.658 78.4358 132.433C87.0932 127.384 97.6378 122.761 104.467 116.993C99.3717 114.068 72.0548 86.8927 69.2123 82.0332L68.2805 82.5286C65.0133 88.7563 41.8482 109.94 34.8774 116.899C27.6708 124.105 6.95902 146.811 0.0590361 150.585H0.0472412Z"
      fill="#EB4335" />
   <path fill-rule="evenodd" clip-rule="evenodd"
      d="M69.2004 82.0332C72.043 86.8927 99.3599 114.068 104.455 116.993C112.759 113.148 121.322 107.746 129.154 103.146C138.177 97.8501 146.634 95.0665 146.598 82.104C146.563 69.9435 137.162 65.7799 128.965 61.2035C120.838 56.6625 112.145 50.6117 104.184 47.4507L69.2004 82.0332Z"
      fill="#FBBC12" />
</svg>