<svg viewBox="0 0 16 19" fill="none" xmlns="http://www.w3.org/2000/svg">
<path fill-rule="evenodd" clip-rule="evenodd" d="M4.09239 14.0344L4.05428 13.9963C3.62245 13.8058 3.29223 13.2724 3.16522 12.7517C2.66989 10.8211 4.16859 9.23353 6.25153 9.63995L6.26423 7.12518C4.07968 6.98548 2.36507 8.16665 1.39981 9.94477C0.967977 10.7195 0.650456 11.9642 0.726661 13.0311C0.790166 14.009 1.03148 14.8092 1.51411 15.6221C1.59032 15.7618 1.65382 15.7999 1.70463 15.9396C1.76813 16.0031 1.80623 16.0539 1.86974 16.1301C2.37777 16.4984 2.91121 16.854 3.58435 17.1081C5.7308 17.9209 8.15666 17.324 9.54105 15.5585C10.4047 14.4536 10.7857 13.1454 10.7857 11.3673C10.7857 9.53835 10.7857 7.72212 10.7857 5.8932C10.9127 5.94401 11.0779 6.09642 11.2049 6.19802C12.1955 6.85847 13.7577 7.3665 14.9008 7.3284V5.02954C14.3293 4.91524 13.8847 4.76283 13.4402 4.48341C13.1354 4.3056 12.513 3.78486 12.3987 3.51814C12.3479 3.44194 12.3479 3.44194 12.2844 3.39114C12.1828 3.34033 12.2082 3.35303 12.1193 3.26413C12.0685 3.21332 12.0431 3.18792 11.9923 3.13712C11.4208 2.55288 10.9635 1.56221 10.8619 0.749359H8.56308C8.49958 2.37507 8.56308 4.11508 8.56308 5.75349C8.56308 6.79496 8.61389 12.3198 8.51228 13.0819C8.41067 13.7677 8.14396 14.2504 7.58512 14.6568C7.10249 15.0124 6.37854 15.241 5.57838 15.0759C5.01955 14.9616 4.19399 14.4917 4.09239 14.0344Z" fill="var(--color-text-primary)"/>
<path fill-rule="evenodd" clip-rule="evenodd" d="M1.85699 16.1428C1.9205 16.219 1.9459 16.2698 2.02211 16.346C2.18722 16.5111 2.36503 16.727 2.56824 16.8794C2.82226 17.0827 3.10168 17.2859 3.4319 17.4637C4.82899 18.2257 6.65792 18.467 8.15661 17.8701C8.96947 17.5399 9.32509 17.2732 9.90933 16.7016C10.8238 15.7872 11.4715 14.2377 11.4842 12.4595V8.11585C11.4842 7.65862 11.4588 7.08708 11.4969 6.64255C11.5985 6.68066 12.1447 7.23949 13.2624 7.62052C13.9482 7.84913 14.7738 8.06505 15.5993 8.07775V5.09305L14.9008 5.01685V7.3157C13.7577 7.3665 12.1955 6.85847 11.2048 6.18532C11.0651 6.09642 10.9127 5.94401 10.7857 5.8805C10.7857 7.70943 10.7857 9.52565 10.7857 11.3546C10.7857 13.1327 10.4047 14.4409 9.54101 15.5458C8.16932 17.3113 5.73075 17.9082 3.58431 17.0954C2.91116 16.8413 2.37773 16.4857 1.8697 16.1174L1.85699 16.1428Z" fill="#FF024F"/>
<path fill-rule="evenodd" clip-rule="evenodd" d="M4.09235 14.0344C4.19395 14.5044 5.01951 14.9616 5.57835 15.0759C6.3658 15.241 7.08975 15.0124 7.58508 14.6568C8.14392 14.2504 8.41063 13.7677 8.51224 13.0819C8.62655 12.3198 8.56304 6.78225 8.56304 5.75348C8.56304 4.11507 8.51224 2.38776 8.56304 0.74935H10.8619L10.773 0.0127008L7.8645 0C7.8518 3.83566 7.8899 7.72212 7.8518 11.5324C7.8391 12.3198 7.78829 12.8406 7.38187 13.4121C6.75952 14.2758 5.31163 14.7711 4.09235 14.0344Z" fill="#00F8F0"/>
<path fill-rule="evenodd" clip-rule="evenodd" d="M1.69191 15.9523C1.6411 15.8125 1.5776 15.7744 1.50139 15.6347C1.01876 14.8219 0.777446 14.0217 0.713941 13.0438C0.637736 11.9769 0.967958 10.7322 1.38709 9.95746C2.35235 8.17934 4.06697 6.99816 6.25151 7.13787V6.45202C5.48946 6.41392 5.10843 6.29961 4.25748 6.47742C3.64784 6.60443 3.1271 6.80765 2.65717 7.08706C0.142403 8.58576 -0.759357 12.2309 0.701241 14.7203C0.929856 15.114 1.34898 15.7236 1.69191 15.9523Z" fill="#00F8F0"/>
<path fill-rule="evenodd" clip-rule="evenodd" d="M4.05425 14.009C3.4319 12.8025 3.83833 11.0243 5.34973 10.5163C6.14989 10.2496 6.44201 10.4274 6.96274 10.3893V7.21408L6.25149 7.13788L6.23879 9.65265C4.16855 9.24622 2.66985 10.8338 3.15249 12.7644C3.27949 13.2851 3.62242 13.8185 4.04155 14.009H4.05425Z" fill="#FF024F"/>
<path fill-rule="evenodd" clip-rule="evenodd" d="M12.2717 3.40383C12.1701 3.11171 11.9288 2.8831 11.7256 2.22265C11.5859 1.77812 11.4843 1.27009 11.4716 0.762054H10.8492C10.9508 1.57491 11.4081 2.57828 11.9796 3.14981C12.0304 3.20062 12.0558 3.22602 12.1066 3.27682C12.1955 3.35303 12.1701 3.35303 12.2717 3.40383Z" fill="#FF024F"/>
<path fill-rule="evenodd" clip-rule="evenodd" d="M14.8881 5.02953V4.36908C14.3547 4.30558 13.9483 4.25478 13.491 4.10237C12.9957 3.92455 12.7671 3.75944 12.386 3.51813C12.5004 3.78485 13.1354 4.30558 13.4275 4.48339C13.872 4.75011 14.3166 4.91522 14.8881 5.02953Z" fill="#00F8F0"/>
</svg>
