<svg viewBox="0 0 67 64" fill="none" xmlns="http://www.w3.org/2000/svg">
<path fill-rule="evenodd" clip-rule="evenodd" d="M27.3715 63.5256L42.0807 58.9845C47.1556 57.4182 48.6183 52.1856 45.3311 47.3561L35.8044 33.36C32.5173 28.5305 25.677 25.8616 20.6021 27.4287L5.89297 31.969C0.818894 33.536 -0.643799 38.7686 2.64252 43.5973L12.1692 57.5942C15.4563 62.4229 22.2975 65.0918 27.3715 63.5256ZM25.2954 58.559L37.8495 54.6832C40.8387 53.7606 41.6999 50.679 39.7639 47.8349L31.633 35.8878C29.6971 33.0437 25.6674 31.4718 22.6783 32.3944L10.1242 36.2703C7.135 37.1928 6.27379 40.2752 8.20972 43.1193L16.3407 55.0656C18.2766 57.9098 22.3062 59.4824 25.2954 58.559Z" fill="url(#paint0_linear_602_3474)"/>
<path fill-rule="evenodd" clip-rule="evenodd" d="M28.5068 61.8496L43.216 57.3093C48.2908 55.7422 49.7535 50.5096 46.4664 45.6809L36.9397 31.684C33.6526 26.8553 26.8122 24.1865 21.7374 25.7527L7.02822 30.2938C1.95415 31.8601 0.491455 37.0927 3.77777 41.9214L13.3045 55.9183C16.5916 60.7478 23.4327 63.4167 28.5068 61.8496ZM26.4306 56.8839L38.9848 53.008C41.9739 52.0855 42.8351 49.0031 40.8992 46.1589L32.7682 34.2127C30.8323 31.3686 26.8027 29.7959 23.8135 30.7193L11.2594 34.5951C8.27026 35.5177 7.40904 38.5992 9.34498 41.4434L17.4759 53.3904C19.4119 56.2346 23.4415 57.8064 26.4306 56.8839Z" fill="url(#paint1_linear_602_3474)"/>
<path fill-rule="evenodd" clip-rule="evenodd" d="M29.642 60.1737L44.3512 55.6326C49.4261 54.0664 50.8888 48.8338 47.6017 44.0051L38.0749 30.0082C34.7878 25.1787 27.9475 22.5098 22.8726 24.0768L8.16347 28.6172C3.0894 30.1842 1.62671 35.4168 4.91302 40.2455L14.4397 54.2424C17.7269 59.0711 24.568 61.74 29.642 60.1737ZM27.5659 55.2072L40.12 51.3314C43.1092 50.4088 43.9704 47.3272 42.0344 44.4831L33.9035 32.536C31.9676 29.6919 27.9379 28.12 24.9488 29.0426L12.3947 32.9184C9.40551 33.841 8.54429 36.9234 10.4802 39.7675L18.6112 51.7138C20.5471 54.5579 24.5767 56.1306 27.5659 55.2072Z" fill="url(#paint2_linear_602_3474)"/>
<path fill-rule="evenodd" clip-rule="evenodd" d="M30.7773 58.4979L45.4865 53.9575C50.5613 52.3905 52.024 47.1579 48.7369 42.3292L39.2102 28.3323C35.9231 23.5036 29.0828 20.8347 24.0079 22.4009L9.29873 26.942C4.22466 28.5083 2.76196 33.7409 6.04828 38.5704L15.575 52.5665C18.8621 57.396 25.7032 60.0649 30.7773 58.4979ZM28.7011 53.5321L41.2553 49.6562C44.2444 48.7337 45.1056 45.6513 43.1697 42.8072L35.0388 30.8609C33.1028 28.0167 29.0732 26.4441 26.084 27.3675L13.5299 31.2433C10.5408 32.1659 9.67955 35.2475 11.6155 38.0916L19.7464 50.0387C21.6824 52.8828 25.712 54.4547 28.7011 53.5321Z" fill="url(#paint3_linear_602_3474)"/>
<path fill-rule="evenodd" clip-rule="evenodd" d="M31.9126 56.8226L46.6217 52.2815C51.6966 50.7152 53.1593 45.4826 49.8722 40.6539L40.3454 26.657C37.0583 21.8283 30.218 19.1586 25.1431 20.7257L10.434 25.2668C5.35991 26.8331 3.89722 32.0657 7.18353 36.8944L16.7102 50.8913C19.9974 55.72 26.8385 58.3889 31.9126 56.8226ZM29.8364 51.8561L42.3905 47.981C45.3797 47.0576 46.2409 43.9761 44.305 41.1319L36.174 29.1849C34.2381 26.3407 30.2085 24.7689 27.2201 25.6914L14.6652 29.5673C11.676 30.4898 10.8148 33.5722 12.7507 36.4163L20.8825 48.3626C22.8176 51.2068 26.8472 52.7794 29.8364 51.8561Z" fill="url(#paint4_linear_602_3474)"/>
<path fill-rule="evenodd" clip-rule="evenodd" d="M33.0479 55.146L47.7571 50.6057C52.832 49.0387 54.2946 43.8061 51.0075 38.9774L41.4808 24.9804C38.1937 20.1517 31.3534 17.4829 26.2785 19.0491L11.5694 23.5902C6.49529 25.1573 5.03259 30.3891 8.31891 35.2186L17.8456 49.2155C21.1327 54.0442 27.9739 56.7131 33.0479 55.146ZM30.9718 50.1803L43.5259 46.3044C46.515 45.3819 47.3763 42.2995 45.4403 39.4554L37.3094 27.5091C35.3734 24.6649 31.3438 23.0931 28.3555 24.0156L15.8005 27.8915C12.8114 28.814 11.9502 31.8956 13.8861 34.7398L22.0179 46.6869C23.953 49.531 27.9826 51.1028 30.9718 50.1803Z" fill="url(#paint5_linear_602_3474)"/>
<path fill-rule="evenodd" clip-rule="evenodd" d="M37.0242 53.9192L55.6044 48.1831C62.0145 46.2041 63.862 39.5948 59.7105 33.4946L47.6758 15.8146C43.5243 9.71444 34.8827 6.34369 28.4734 8.32185L9.89316 14.058C3.48305 16.0369 1.63474 22.647 5.78705 28.7464L17.8209 46.4272C21.9725 52.5266 30.6141 55.8981 37.0242 53.9192Z" fill="url(#paint6_linear_602_3474)"/>
<path fill-rule="evenodd" clip-rule="evenodd" d="M40.6968 48.2825L59.277 42.5464C65.6871 40.5674 67.5347 33.9581 63.3831 27.8579L51.3492 10.178C47.1969 4.07778 38.5561 0.706232 32.146 2.68519L13.5658 8.42131C7.15567 10.4003 5.30816 17.0103 9.45967 23.1097L21.4936 40.7905C25.6459 46.8899 34.2867 50.2615 40.6968 48.2825ZM38.0741 42.0094L53.9329 37.1138C57.7084 35.9483 58.7966 32.0549 56.3508 28.4618L46.08 13.3711C43.6342 9.77884 38.5442 7.7927 34.7687 8.95825L18.9107 13.8539C15.1345 15.0202 14.0462 18.9128 16.492 22.5059L26.7636 37.5966C29.2087 41.1889 34.2987 43.175 38.0741 42.0094Z" fill="url(#paint7_linear_602_3474)"/>
<path fill-rule="evenodd" clip-rule="evenodd" d="M38.1514 52.0408L56.7316 46.3047C63.1417 44.3257 64.9892 37.7157 60.8377 31.6163L48.803 13.9355C44.6515 7.8361 36.0099 4.46454 29.5998 6.4435L11.0195 12.1796C4.61022 14.1586 2.76191 20.7679 6.91422 26.8681L18.9481 44.548C23.0996 50.6482 31.7413 54.0198 38.1514 52.0408ZM35.5279 45.7678L51.3866 40.8713C55.1621 39.7058 56.2504 35.8132 53.8054 32.2201L43.5338 17.1294C41.0887 13.5371 35.9987 11.551 32.2232 12.7166L16.3645 17.6122C12.589 18.7777 11.5007 22.6711 13.9457 26.2642L24.2174 41.3549C26.6632 44.9472 31.7524 46.9333 35.5279 45.7678Z" fill="url(#paint8_linear_602_3474)"/>
<path fill-rule="evenodd" clip-rule="evenodd" d="M31.8465 42.5837L35.7303 41.3847C36.1956 41.2405 36.5453 40.9808 36.7684 40.6478C37.3603 40.0216 37.397 39.0313 36.7612 38.0968L34.2461 34.4018C33.3785 33.1271 31.5716 32.422 30.2316 32.8355L26.3478 34.0345C25.8833 34.1779 25.5328 34.4384 25.3105 34.7706C24.7178 35.3968 24.6811 36.3871 25.3169 37.3216L27.832 41.0174C28.7004 42.2921 30.5065 42.9972 31.8465 42.5837ZM48.9672 36.8627C49.5591 36.2365 49.5966 35.2455 48.96 34.3118L46.4449 30.6159C45.5773 29.3412 43.7712 28.6362 42.4304 29.0505L38.5474 30.2487C38.0821 30.3929 37.7316 30.6534 37.5093 30.9848C36.9174 31.611 36.8799 32.6021 37.5157 33.5358L40.0308 37.2316C40.8992 38.5071 42.7053 39.2114 44.0453 38.7979L47.9291 37.5989C48.3944 37.4554 48.7441 37.195 48.9672 36.8627ZM36.2227 27.8331L40.1065 26.6341C40.571 26.4899 40.9223 26.2302 41.1446 25.8972C41.7365 25.2718 41.7732 24.2807 41.1374 23.347L38.6223 19.6512C37.7539 18.3765 35.9486 17.6714 34.6086 18.0849L30.7248 19.2839C30.2595 19.4281 29.909 19.6878 29.6859 20.0201C29.0948 20.6462 29.0573 21.6373 29.6931 22.571L32.2082 26.2669C33.0758 27.5415 34.8827 28.2466 36.2227 27.8331ZM28.945 29.683C29.5369 29.0568 29.5744 28.0657 28.9386 27.1328L26.4235 23.4362C25.5559 22.1615 23.7498 21.4565 22.4098 21.8707L18.526 23.0697C18.0607 23.2131 17.7102 23.4737 17.4871 23.8059C16.8959 24.4321 16.8585 25.4223 17.4943 26.3561L20.0094 30.0519C20.877 31.3274 22.6831 32.0316 24.0231 31.6182L27.9069 30.4191C28.3722 30.2757 28.7227 30.0152 28.945 29.683Z" fill="url(#paint9_linear_602_3474)"/>
<path fill-rule="evenodd" clip-rule="evenodd" d="M41.9699 46.4033L60.5502 40.668C66.9603 38.689 68.8078 32.0789 64.6563 25.9795L52.6224 8.29878C48.4701 2.19938 39.8292 -1.17218 33.4191 0.806777L14.8389 6.54289C8.4288 8.52185 6.58129 15.1311 10.7328 21.2305L22.7667 38.9113C26.919 45.0107 35.5598 48.3823 41.9699 46.4033ZM39.3473 40.1302L55.2052 35.2346C58.9815 34.0691 60.0698 30.1765 57.624 26.5834L47.3523 11.4927C44.9073 7.89963 39.8173 5.91429 36.0418 7.07984L20.1831 11.9755C16.4076 13.141 15.3193 17.0344 17.7651 20.6266L28.036 35.7174C30.4818 39.3104 35.5718 41.2958 39.3473 40.1302Z" fill="url(#paint10_linear_602_3474)"/>
<defs>
<linearGradient id="paint0_linear_602_3474" x1="26.9278" y1="25.7317" x2="18.4582" y2="64.4274" gradientUnits="userSpaceOnUse">
<stop stop-color="#00A8D9"/>
<stop offset="1" stop-color="#021E22"/>
</linearGradient>
<linearGradient id="paint1_linear_602_3474" x1="28.063" y1="24.0558" x2="19.5935" y2="62.7523" gradientUnits="userSpaceOnUse">
<stop stop-color="#00AFEF"/>
<stop offset="1" stop-color="#021E22"/>
</linearGradient>
<linearGradient id="paint2_linear_602_3474" x1="29.1983" y1="22.3799" x2="20.7288" y2="61.0764" gradientUnits="userSpaceOnUse">
<stop stop-color="#009BDB"/>
<stop offset="1" stop-color="#021E22"/>
</linearGradient>
<linearGradient id="paint3_linear_602_3474" x1="30.3335" y1="20.704" x2="21.864" y2="59.4005" gradientUnits="userSpaceOnUse">
<stop stop-color="#247EDE"/>
<stop offset="1" stop-color="#021E22"/>
</linearGradient>
<linearGradient id="paint4_linear_602_3474" x1="31.4688" y1="19.0288" x2="22.9993" y2="57.7252" gradientUnits="userSpaceOnUse">
<stop stop-color="#395DA6"/>
<stop offset="1" stop-color="#021E22"/>
</linearGradient>
<linearGradient id="paint5_linear_602_3474" x1="32.6042" y1="17.3522" x2="24.1346" y2="56.0487" gradientUnits="userSpaceOnUse">
<stop stop-color="#0041C4"/>
<stop offset="1" stop-color="#021E22"/>
</linearGradient>
<linearGradient id="paint6_linear_602_3474" x1="36.4641" y1="6.17878" x2="25.7655" y2="55.0592" gradientUnits="userSpaceOnUse">
<stop stop-color="#98354F"/>
<stop offset="1" stop-color="#171515"/>
</linearGradient>
<linearGradient id="paint7_linear_602_3474" x1="40.1367" y1="0.542114" x2="29.4381" y2="49.4226" gradientUnits="userSpaceOnUse">
<stop stop-color="#F5483D"/>
<stop offset="1" stop-color="#B63D3D"/>
</linearGradient>
<linearGradient id="paint8_linear_602_3474" x1="37.5905" y1="4.30042" x2="26.8918" y2="53.1801" gradientUnits="userSpaceOnUse">
<stop stop-color="#EE314B"/>
<stop offset="1" stop-color="#B3314D"/>
</linearGradient>
<linearGradient id="paint9_linear_602_3474" x1="34.8731" y1="18.7836" x2="30.6706" y2="43.3916" gradientUnits="userSpaceOnUse">
<stop stop-color="#F5B33D"/>
<stop offset="1" stop-color="#EF5045"/>
</linearGradient>
<linearGradient id="paint10_linear_602_3474" x1="41.4099" y1="-1.33709" x2="30.7112" y2="47.5434" gradientUnits="userSpaceOnUse">
<stop stop-color="#B3314D"/>
<stop offset="1" stop-color="#171515"/>
</linearGradient>
</defs>
</svg>
